<svg xmlns:dc="http://purl.org/dc/elements/1.1/" xmlns:cc="http://creativecommons.org/ns#" xmlns:rdf="http://www.w3.org/1999/02/22-rdf-syntax-ns#" xmlns:svg="http://www.w3.org/2000/svg" xmlns="http://www.w3.org/2000/svg" xmlns:sodipodi="http://sodipodi.sourceforge.net/DTD/sodipodi-0.dtd" xmlns:inkscape="http://www.inkscape.org/namespaces/inkscape" viewBox="0 0 100 125" version="1.1" x="0px" y="0px"><g transform="translate(0,-952.36218)"><path style="opacity:1;fill:#000000;fill-opacity:1;stroke:none;stroke-opacity:1" d="m 43.15189,1002.4457 c -1.939771,0 -3.501392,1.5559 -3.501392,3.4887 l 0,13.6822 c 0,1.9327 1.561621,3.4887 3.501392,3.4887 l 13.729287,0 c 1.939771,0 3.501393,-1.556 3.501393,-3.4887 l 0,-13.6822 c 0,-1.9328 -1.561622,-3.4887 -3.501393,-3.4887 l -13.729287,0 z m 1.460738,2.1995 10.807814,0 c 1.527054,0 2.757345,1.2232 2.757345,2.7447 l 0,10.7712 c 0,1.5215 -1.230291,2.7447 -2.757345,2.7447 l -10.807814,0 c -1.527054,0 -2.757345,-1.2232 -2.757345,-2.7447 l 0,-10.7712 c 0,-1.5215 1.230291,-2.7447 2.757345,-2.7447 z"/><path d="m 64.105787,1002.4457 c -1.939772,0 -3.501393,1.5559 -3.501393,3.4887 l 0,13.6822 c 0,1.9327 1.561621,3.4887 3.501393,3.4887 l 13.729287,0 c 1.93977,0 3.501392,-1.556 3.501392,-3.4887 l 0,-13.6822 c 0,-1.9328 -1.561622,-3.4887 -3.501392,-3.4887 l -13.729287,0 z m 1.460737,2.1995 10.807813,0 c 1.527055,0 2.757346,1.2232 2.757346,2.7447 l 0,10.7712 c 0,1.5215 -1.230292,2.7447 -2.757346,2.7447 l -10.807814,0 c -1.527053,0 -2.757345,-1.2232 -2.757345,-2.7447 l 0,-10.7712 c 0,-1.5215 1.230292,-2.7447 2.757345,-2.7447 z" style="opacity:1;fill:#000000;fill-opacity:1;stroke:none;stroke-opacity:1"/><path style="opacity:1;fill:#000000;fill-opacity:1;stroke:none;stroke-opacity:1" d="m 22.164926,1002.4457 c -1.939771,0 -3.501392,1.5559 -3.501392,3.4887 l 0,13.6822 c 0,1.9327 1.561621,3.4887 3.501392,3.4887 l 13.729287,0 c 1.939771,0 3.501393,-1.556 3.501393,-3.4887 l 0,-13.6822 c 0,-1.9328 -1.561622,-3.4887 -3.501393,-3.4887 l -13.729287,0 z m 1.460738,2.1995 10.807814,0 c 1.527054,0 2.757345,1.2232 2.757345,2.7447 l 0,10.7712 c 0,1.5215 -1.230291,2.7447 -2.757345,2.7447 l -10.807814,0 c -1.527053,0 -2.757346,-1.2232 -2.757346,-2.7447 l 0,-10.7712 c 0,-1.5215 1.230292,-2.7447 2.757346,-2.7447 z"/><path d="m 43.15189,981.61902 c -1.939771,0 -3.501392,1.5559 -3.501392,3.4887 l 0,13.6822 c 0,1.93268 1.561621,3.48868 3.501392,3.48868 l 13.729287,0 c 1.939771,0 3.501393,-1.556 3.501393,-3.48868 l 0,-13.6822 c 0,-1.9328 -1.561622,-3.4887 -3.501393,-3.4887 l -13.729287,0 z m 1.460738,2.1995 10.807814,0 c 1.527054,0 2.757345,1.2232 2.757345,2.7447 l 0,10.7712 c 0,1.5215 -1.230291,2.74468 -2.757345,2.74468 l -10.807814,0 c -1.527054,0 -2.757345,-1.22318 -2.757345,-2.74468 l 0,-10.7712 c 0,-1.5215 1.230291,-2.7447 2.757345,-2.7447 z" style="opacity:1;fill:#000000;fill-opacity:1;stroke:none;stroke-opacity:1"/></g></svg>